<svg xmlns="http://www.w3.org/2000/svg" viewBox="0 0 800 600">
  <!-- April: Regen und Regenbogen -->
  <defs>
    <linearGradient id="aprilSky" x1="0%" y1="0%" x2="0%" y2="100%">
      <stop offset="0%" style="stop-color:#94a3b8;stop-opacity:1" />
      <stop offset="100%" style="stop-color:#cbd5e1;stop-opacity:1" />
    </linearGradient>
  </defs>

  <!-- Himmel -->
  <rect width="800" height="600" fill="url(#aprilSky)"/>

  <!-- Regenbogen -->
  <path d="M 100 400 Q 400 200 700 400" stroke="#ef4444" stroke-width="15" fill="none" opacity="0.6"/>
  <path d="M 100 410 Q 400 210 700 410" stroke="#f97316" stroke-width="15" fill="none" opacity="0.6"/>
  <path d="M 100 420 Q 400 220 700 420" stroke="#fbbf24" stroke-width="15" fill="none" opacity="0.6"/>
  <path d="M 100 430 Q 400 230 700 430" stroke="#84cc16" stroke-width="15" fill="none" opacity="0.6"/>
  <path d="M 100 440 Q 400 240 700 440" stroke="#3b82f6" stroke-width="15" fill="none" opacity="0.6"/>
  <path d="M 100 450 Q 400 250 700 450" stroke="#8b5cf6" stroke-width="15" fill="none" opacity="0.6"/>

  <!-- Wolken -->
  <ellipse cx="200" cy="150" rx="60" ry="35" fill="#e2e8f0" opacity="0.8"/>
  <ellipse cx="240" cy="150" rx="50" ry="30" fill="#e2e8f0" opacity="0.8"/>
  <ellipse cx="180" cy="160" rx="45" ry="28" fill="#e2e8f0" opacity="0.8"/>

  <ellipse cx="600" cy="100" rx="70" ry="40" fill="#e2e8f0" opacity="0.8"/>
  <ellipse cx="650" cy="100" rx="55" ry="35" fill="#e2e8f0" opacity="0.8"/>
  <ellipse cx="570" cy="110" rx="50" ry="30" fill="#e2e8f0" opacity="0.8"/>

  <!-- Regentropfen -->
  <ellipse cx="180" cy="220" rx="3" ry="8" fill="#3b82f6" opacity="0.5"/>
  <ellipse cx="210" cy="250" rx="3" ry="8" fill="#3b82f6" opacity="0.5"/>
  <ellipse cx="240" cy="230" rx="3" ry="8" fill="#3b82f6" opacity="0.5"/>
  <ellipse cx="160" cy="270" rx="3" ry="8" fill="#3b82f6" opacity="0.5"/>
  <ellipse cx="230" cy="280" rx="3" ry="8" fill="#3b82f6" opacity="0.5"/>

  <ellipse cx="590" cy="180" rx="3" ry="8" fill="#3b82f6" opacity="0.5"/>
  <ellipse cx="620" cy="200" rx="3" ry="8" fill="#3b82f6" opacity="0.5"/>
  <ellipse cx="650" cy="190" rx="3" ry="8" fill="#3b82f6" opacity="0.5"/>
  <ellipse cx="610" cy="220" rx="3" ry="8" fill="#3b82f6" opacity="0.5"/>
</svg>
