<svg xmlns="http://www.w3.org/2000/svg" viewBox="0 0 800 600">
  <!-- M채rz: Fr체hling erwacht / Blumen -->
  <defs>
    <linearGradient id="marchSky" x1="0%" y1="0%" x2="0%" y2="100%">
      <stop offset="0%" style="stop-color:#bae6fd;stop-opacity:1" />
      <stop offset="100%" style="stop-color:#7dd3fc;stop-opacity:1" />
    </linearGradient>
  </defs>

  <!-- Himmel -->
  <rect width="800" height="600" fill="url(#marchSky)"/>

  <!-- Wiese -->
  <rect y="400" width="800" height="200" fill="#86efac"/>

  <!-- Blumen -->
  <g>
    <!-- Tulpe 1 -->
    <ellipse cx="150" cy="450" rx="15" ry="25" fill="#ef4444"/>
    <rect x="145" y="455" width="10" height="80" fill="#22c55e"/>
    <ellipse cx="140" cy="490" rx="8" ry="4" fill="#22c55e"/>

    <!-- Tulpe 2 -->
    <ellipse cx="250" cy="470" rx="12" ry="20" fill="#f59e0b"/>
    <rect x="246" y="475" width="8" height="70" fill="#22c55e"/>

    <!-- Tulpe 3 -->
    <ellipse cx="350" cy="440" rx="18" ry="28" fill="#ec4899"/>
    <rect x="344" y="445" width="12" height="90" fill="#22c55e"/>
    <ellipse cx="355" cy="480" rx="10" ry="5" fill="#22c55e"/>

    <!-- G채nsebl체mchen -->
    <circle cx="500" cy="480" r="8" fill="#fef3c7"/>
    <circle cx="490" cy="475" r="4" fill="#ffffff"/>
    <circle cx="510" cy="475" r="4" fill="#ffffff"/>
    <circle cx="495" cy="487" r="4" fill="#ffffff"/>
    <circle cx="505" cy="487" r="4" fill="#ffffff"/>
    <rect x="497" y="485" width="6" height="50" fill="#22c55e"/>

    <!-- Tulpe 4 -->
    <ellipse cx="650" cy="460" rx="14" ry="23" fill="#a855f7"/>
    <rect x="646" y="465" width="8" height="75" fill="#22c55e"/>
  </g>

  <!-- Sonne -->
  <circle cx="700" cy="100" r="50" fill="#fbbf24" opacity="0.7"/>
  <circle cx="700" cy="100" r="35" fill="#fde047" opacity="0.8"/>
</svg>
