<svg xmlns="http://www.w3.org/2000/svg" viewBox="0 0 800 600">
  <!-- November: Nebel und kahle Bäume / Düstere Dorfszene -->
  <defs>
    <linearGradient id="novemberSky" x1="0%" y1="0%" x2="0%" y2="100%">
      <stop offset="0%" style="stop-color:#64748b;stop-opacity:1" />
      <stop offset="50%" style="stop-color:#94a3b8;stop-opacity:1" />
      <stop offset="100%" style="stop-color:#cbd5e1;stop-opacity:1" />
    </linearGradient>
  </defs>

  <!-- Himmel (grau und trüb) -->
  <rect width="800" height="600" fill="url(#novemberSky)"/>

  <!-- Diffuse Sonne hinter Wolken -->
  <circle cx="600" cy="140" r="65" fill="#e2e8f0" opacity="0.6"/>
  <circle cx="600" cy="140" r="50" fill="#f1f5f9" opacity="0.5"/>

  <!-- Dichte Wolken -->
  <ellipse cx="200" cy="100" rx="90" ry="50" fill="#94a3b8" opacity="0.7"/>
  <ellipse cx="270" cy="105" rx="75" ry="45" fill="#94a3b8" opacity="0.7"/>
  <ellipse cx="150" cy="115" rx="70" ry="42" fill="#94a3b8" opacity="0.7"/>
  <ellipse cx="230" cy="90" rx="60" ry="38" fill="#cbd5e1" opacity="0.6"/>

  <ellipse cx="450" cy="120" rx="95" ry="52" fill="#94a3b8" opacity="0.75"/>
  <ellipse cx="525" cy="125" rx="80" ry="48" fill="#94a3b8" opacity="0.75"/>
  <ellipse cx="395" cy="130" rx="75" ry="45" fill="#94a3b8" opacity="0.75"/>
  <ellipse cx="475" cy="110" rx="65" ry="40" fill="#cbd5e1" opacity="0.65"/>

  <ellipse cx="650" cy="90" rx="85" ry="48" fill="#94a3b8" opacity="0.7"/>
  <ellipse cx="710" cy="95" rx="70" ry="43" fill="#94a3b8" opacity="0.7"/>
  <ellipse cx="600" cy="100" rx="65" ry="40" fill="#cbd5e1" opacity="0.6"/>

  <!-- Hügel (verblasst im Nebel) -->
  <ellipse cx="300" cy="400" rx="320" ry="75" fill="#78350f" opacity="0.3"/>
  <ellipse cx="600" cy="420" rx="350" ry="85" fill="#92400e" opacity="0.3"/>

  <!-- Nebel-Schichten (dicht) -->
  <ellipse cx="400" cy="430" rx="550" ry="110" fill="#e2e8f0" opacity="0.5"/>
  <ellipse cx="300" cy="470" rx="480" ry="95" fill="#e2e8f0" opacity="0.6"/>
  <ellipse cx="500" cy="490" rx="520" ry="100" fill="#e2e8f0" opacity="0.4"/>
  <ellipse cx="350" cy="520" rx="450" ry="85" fill="#e2e8f0" opacity="0.55"/>
  <ellipse cx="550" cy="540" rx="480" ry="90" fill="#e2e8f0" opacity="0.45"/>

  <!-- Wiese/Boden (neblig) -->
  <rect y="430" width="800" height="170" fill="#65a30d"/>
  <rect y="460" width="800" height="140" fill="#78350f" opacity="0.2"/>

  <!-- Kahler Baum links (groß, detailliert) -->
  <line x1="150" y1="520" x2="150" y2="310" stroke="#475569" stroke-width="14"/>
  <line x1="148" y1="520" x2="148" y2="312" stroke="#64748b" stroke-width="10"/>

  <!-- Hauptäste -->
  <line x1="150" y1="350" x2="105" y2="295" stroke="#475569" stroke-width="9"/>
  <line x1="150" y1="350" x2="195" y2="300" stroke="#475569" stroke-width="9"/>
  <line x1="150" y1="390" x2="115" y2="345" stroke="#475569" stroke-width="8"/>
  <line x1="150" y1="390" x2="190" y2="350" stroke="#475569" stroke-width="8"/>
  <line x1="150" y1="430" x2="125" y2="395" stroke="#475569" stroke-width="7"/>
  <line x1="150" y1="430" x2="180" y2="400" stroke="#475569" stroke-width="7"/>

  <!-- Feinere Zweige -->
  <line x1="105" y1="295" x2="85" y2="265" stroke="#475569" stroke-width="5"/>
  <line x1="105" y1="295" x2="120" y2="270" stroke="#475569" stroke-width="5"/>
  <line x1="195" y1="300" x2="220" y2="275" stroke="#475569" stroke-width="5"/>
  <line x1="195" y1="300" x2="205" y2="265" stroke="#475569" stroke-width="5"/>

  <line x1="115" y1="345" x2="95" y2="320" stroke="#475569" stroke-width="4"/>
  <line x1="115" y1="345" x2="125" y2="315" stroke="#475569" stroke-width="4"/>
  <line x1="190" y1="350" x2="210" y2="325" stroke="#475569" stroke-width="4"/>
  <line x1="190" y1="350" x2="200" y2="320" stroke="#475569" stroke-width="4"/>

  <!-- Dünne Zweige -->
  <line x1="85" y1="265" x2="70" y2="245" stroke="#475569" stroke-width="2.5"/>
  <line x1="85" y1="265" x2="92" y2="248" stroke="#475569" stroke-width="2.5"/>
  <line x1="220" y1="275" x2="235" y2="255" stroke="#475569" stroke-width="2.5"/>
  <line x1="220" y1="275" x2="228" y2="260" stroke="#475569" stroke-width="2.5"/>

  <!-- Kahler Baum Mitte (mittelgroß) -->
  <line x1="400" y1="540" x2="400" y2="340" stroke="#475569" stroke-width="12"/>
  <line x1="398" y1="540" x2="398" y2="342" stroke="#64748b" stroke-width="8"/>

  <!-- Hauptäste -->
  <line x1="400" y1="375" x2="360" y2="325" stroke="#475569" stroke-width="8"/>
  <line x1="400" y1="375" x2="440" y2="330" stroke="#475569" stroke-width="8"/>
  <line x1="400" y1="415" x2="370" y2="375" stroke="#475569" stroke-width="7"/>
  <line x1="400" y1="415" x2="435" y2="380" stroke="#475569" stroke-width="7"/>
  <line x1="400" y1="460" x2="380" y2="425" stroke="#475569" stroke-width="6"/>
  <line x1="400" y1="460" x2="425" y2="430" stroke="#475569" stroke-width="6"/>

  <!-- Feinere Zweige -->
  <line x1="360" y1="325" x2="335" y2="295" stroke="#475569" stroke-width="4.5"/>
  <line x1="360" y1="325" x2="370" y2="295" stroke="#475569" stroke-width="4.5"/>
  <line x1="440" y1="330" x2="465" y2="305" stroke="#475569" stroke-width="4.5"/>
  <line x1="440" y1="330" x2="450" y2="300" stroke="#475569" stroke-width="4.5"/>

  <line x1="370" y1="375" x2="350" y2="350" stroke="#475569" stroke-width="3.5"/>
  <line x1="370" y1="375" x2="378" y2="345" stroke="#475569" stroke-width="3.5"/>
  <line x1="435" y1="380" x2="455" y2="355" stroke="#475569" stroke-width="3.5"/>

  <!-- Dünne Zweige -->
  <line x1="335" y1="295" x2="320" y2="275" stroke="#475569" stroke-width="2"/>
  <line x1="465" y1="305" x2="480" y2="285" stroke="#475569" stroke-width="2"/>

  <!-- Kahler Baum rechts (groß) -->
  <line x1="650" y1="530" x2="650" y2="320" stroke="#475569" stroke-width="13"/>
  <line x1="648" y1="530" x2="648" y2="322" stroke="#64748b" stroke-width="9"/>

  <!-- Hauptäste -->
  <line x1="650" y1="360" x2="610" y2="310" stroke="#475569" stroke-width="8.5"/>
  <line x1="650" y1="360" x2="690" y2="315" stroke="#475569" stroke-width="8.5"/>
  <line x1="650" y1="400" x2="620" y2="360" stroke="#475569" stroke-width="7.5"/>
  <line x1="650" y1="400" x2="685" y2="365" stroke="#475569" stroke-width="7.5"/>
  <line x1="650" y1="445" x2="630" y2="410" stroke="#475569" stroke-width="6.5"/>
  <line x1="650" y1="445" x2="675" y2="415" stroke="#475569" stroke-width="6.5"/>

  <!-- Feinere Zweige -->
  <line x1="610" y1="310" x2="585" y2="280" stroke="#475569" stroke-width="5"/>
  <line x1="610" y1="310" x2="620" y2="280" stroke="#475569" stroke-width="5"/>
  <line x1="690" y1="315" x2="715" y2="290" stroke="#475569" stroke-width="5"/>
  <line x1="690" y1="315" x2="700" y2="285" stroke="#475569" stroke-width="5"/>

  <line x1="620" y1="360" x2="600" y2="335" stroke="#475569" stroke-width="4"/>
  <line x1="620" y1="360" x2="628" y2="330" stroke="#475569" stroke-width="4"/>
  <line x1="685" y1="365" x2="705" y2="340" stroke="#475569" stroke-width="4"/>
  <line x1="685" y1="365" x2="693" y2="335" stroke="#475569" stroke-width="4"/>

  <!-- Dünne Zweige -->
  <line x1="585" y1="280" x2="570" y2="260" stroke="#475569" stroke-width="2.5"/>
  <line x1="585" y1="280" x2="592" y2="265" stroke="#475569" stroke-width="2.5"/>
  <line x1="715" y1="290" x2="730" y2="270" stroke="#475569" stroke-width="2.5"/>
  <line x1="715" y1="290" x2="722" y2="275" stroke="#475569" stroke-width="2.5"/>

  <!-- Kleine kahle Bäume im Hintergrund -->
  <line x1="250" y1="480" x2="250" y2="400" stroke="#64748b" stroke-width="6" opacity="0.6"/>
  <line x1="250" y1="425" x2="230" y2="395" stroke="#64748b" stroke-width="3.5" opacity="0.6"/>
  <line x1="250" y1="425" x2="270" y2="400" stroke="#64748b" stroke-width="3.5" opacity="0.6"/>

  <line x1="550" y1="490" x2="550" y2="415" stroke="#64748b" stroke-width="6" opacity="0.6"/>
  <line x1="550" y1="440" x2="530" y2="410" stroke="#64748b" stroke-width="3.5" opacity="0.6"/>
  <line x1="550" y1="440" x2="570" y2="415" stroke="#64748b" stroke-width="3.5" opacity="0.6"/>

  <!-- Altes Steinhaus (schattenhaft im Nebel) -->
  <rect x="300" y="400" width="120" height="95" fill="#475569" opacity="0.6"/>
  <rect x="302" y="402" width="116" height="91" fill="#64748b" opacity="0.5"/>

  <!-- Dach -->
  <path d="M 290 400 L 360 355 L 430 400 Z" fill="#334155" opacity="0.6"/>

  <!-- Fenster (dunkel) -->
  <rect x="320" y="420" width="28" height="32" fill="#1e293b" opacity="0.7"/>
  <rect x="365" y="420" width="28" height="32" fill="#1e293b" opacity="0.7"/>

  <!-- Tür -->
  <rect x="335" y="460" width="30" height="35" fill="#1e293b" opacity="0.7"/>

  <!-- Schornstein -->
  <rect x="380" y="365" width="18" height="35" fill="#334155" opacity="0.6"/>

  <!-- Vögel (weit entfernt, schemenhaft) -->
  <path d="M 500 200 Q 515 195 530 200" stroke="#475569" stroke-width="2" fill="none" opacity="0.5"/>
  <path d="M 550 220 Q 565 215 580 220" stroke="#475569" stroke-width="2" fill="none" opacity="0.5"/>
  <path d="M 520 180 Q 535 175 550 180" stroke="#475569" stroke-width="2" fill="none" opacity="0.5"/>

  <!-- Letzte Blätter am Boden -->
  <ellipse cx="180" cy="545" rx="20" ry="8" fill="#92400e" opacity="0.5"/>
  <ellipse cx="420" cy="560" rx="18" ry="7" fill="#78350f" opacity="0.5"/>
  <ellipse cx="630" cy="550" rx="22" ry="9" fill="#92400e" opacity="0.5"/>

  <!-- Zusätzliche Nebelschwaden (Vordergrund) -->
  <ellipse cx="200" cy="560" rx="140" ry="35" fill="#f1f5f9" opacity="0.5"/>
  <ellipse cx="500" cy="570" rx="160" ry="38" fill="#f1f5f9" opacity="0.5"/>
  <ellipse cx="700" cy="565" rx="130" ry="32" fill="#f1f5f9" opacity="0.5"/>
</svg>
