<svg xmlns="http://www.w3.org/2000/svg" viewBox="0 0 800 600">
  <!-- Oktober: Halloween / Dorfszene mit Kürbissen -->
  <defs>
    <linearGradient id="octoberSky" x1="0%" y1="0%" x2="0%" y2="100%">
      <stop offset="0%" style="stop-color:#1e293b;stop-opacity:1" />
      <stop offset="50%" style="stop-color:#334155;stop-opacity:1" />
      <stop offset="100%" style="stop-color:#475569;stop-opacity:1" />
    </linearGradient>
  </defs>

  <!-- Nachthimmel -->
  <rect width="800" height="600" fill="url(#octoberSky)"/>

  <!-- Vollmond -->
  <circle cx="650" cy="150" r="75" fill="#fef3c7" opacity="0.95"/>
  <circle cx="650" cy="150" r="68" fill="#fef08a" opacity="0.7"/>
  <!-- Mondkrater -->
  <circle cx="635" cy="135" r="12" fill="#fde68a" opacity="0.4"/>
  <circle cx="660" cy="145" r="9" fill="#fde68a" opacity="0.4"/>
  <circle cx="645" cy="165" r="10" fill="#fde68a" opacity="0.4"/>
  <circle cx="670" cy="160" r="7" fill="#fde68a" opacity="0.4"/>

  <!-- Sterne (viele) -->
  <circle cx="100" cy="80" r="2.5" fill="#fef08a"/>
  <circle cx="200" cy="120" r="2" fill="#fef08a"/>
  <circle cx="350" cy="60" r="2.5" fill="#fef08a"/>
  <circle cx="500" cy="100" r="2" fill="#fef08a"/>
  <circle cx="750" cy="70" r="2.5" fill="#fef08a"/>
  <circle cx="150" cy="150" r="1.8" fill="#fef08a"/>
  <circle cx="300" cy="110" r="2.2" fill="#fef08a"/>
  <circle cx="450" cy="140" r="1.8" fill="#fef08a"/>
  <circle cx="550" cy="80" r="2" fill="#fef08a"/>
  <circle cx="680" cy="220" r="1.8" fill="#fef08a"/>
  <circle cx="120" cy="200" r="2" fill="#fef08a"/>
  <circle cx="400" cy="180" r="1.5" fill="#fef08a"/>

  <!-- Blinkende Sterne (mit Kreuzform) -->
  <g>
    <line x1="250" y1="90" x2="250" y2="100" stroke="#fef08a" stroke-width="1.5"/>
    <line x1="245" y1="95" x2="255" y2="95" stroke="#fef08a" stroke-width="1.5"/>
  </g>
  <g>
    <line x1="600" y1="50" x2="600" y2="58" stroke="#fef08a" stroke-width="1.2"/>
    <line x1="596" y1="54" x2="604" y2="54" stroke="#fef08a" stroke-width="1.2"/>
  </g>

  <!-- Boden/Hügel -->
  <ellipse cx="400" cy="530" rx="450" ry="90" fill="#1f2937"/>
  <ellipse cx="350" cy="520" rx="380" ry="75" fill="#111827" opacity="0.6"/>

  <!-- Spukhaus (verfallen) -->
  <rect x="250" y="340" width="160" height="140" fill="#1f2937"/>
  <rect x="252" y="342" width="156" height="136" fill="#374151"/>

  <!-- Dach (schief) -->
  <path d="M 235 340 L 330 275 L 425 340 Z" fill="#0f172a"/>
  <path d="M 240 340 L 330 280 L 420 340 Z" fill="#1e293b"/>

  <!-- Schiefer Schornstein -->
  <path d="M 360 285 L 370 230 L 385 235 L 375 290 Z" fill="#0f172a"/>
  <rect x="367" y="225" width="20" height="8" fill="#1e293b"/>

  <!-- Kaputte Fenster (beleuchtet/unheimlich) -->
  <rect x="275" y="365" width="35" height="45" fill="#fbbf24" opacity="0.6"/>
  <line x1="292.5" y1="365" x2="292.5" y2="410" stroke="#000000" stroke-width="3"/>
  <line x1="275" y1="387.5" x2="310" y2="387.5" stroke="#000000" stroke-width="3"/>
  <line x1="283" y1="365" x2="278" y2="375" stroke="#000000" stroke-width="2" opacity="0.7"/>

  <rect x="330" y="365" width="35" height="45" fill="#fbbf24" opacity="0.6"/>
  <line x1="347.5" y1="365" x2="347.5" y2="410" stroke="#000000" stroke-width="3"/>
  <line x1="330" y1="387.5" x2="365" y2="387.5" stroke="#000000" stroke-width="3"/>

  <!-- Dachfenster -->
  <path d="M 315 305 L 330 295 L 345 305 L 330 315 Z" fill="#fbbf24" opacity="0.5"/>

  <!-- Tür (gespenstisch) -->
  <rect x="295" y="430" width="40" height="50" fill="#0f172a"/>
  <rect x="297" y="432" width="36" height="46" fill="#1e293b"/>
  <path d="M 297 432 L 333 478" stroke="#000000" stroke-width="2" opacity="0.5"/>
  <circle cx="325" cy="455" r="3" fill="#fbbf24" opacity="0.6"/>

  <!-- Toter Baum links -->
  <line x1="120" y1="520" x2="120" y2="340" stroke="#1f2937" stroke-width="12"/>
  <line x1="120" y1="380" x2="85" y2="330" stroke="#1f2937" stroke-width="7"/>
  <line x1="120" y1="380" x2="155" y2="335" stroke="#1f2937" stroke-width="7"/>
  <line x1="120" y1="420" x2="95" y2="385" stroke="#1f2937" stroke-width="6"/>
  <line x1="120" y1="420" x2="150" y2="390" stroke="#1f2937" stroke-width="6"/>
  <line x1="85" y1="330" x2="70" y2="305" stroke="#1f2937" stroke-width="4"/>
  <line x1="85" y1="330" x2="100" y2="310" stroke="#1f2937" stroke-width="4"/>
  <line x1="155" y1="335" x2="175" y2="315" stroke="#1f2937" stroke-width="4"/>
  <line x1="155" y1="335" x2="165" y2="305" stroke="#1f2937" stroke-width="4"/>

  <!-- Toter Baum rechts -->
  <line x1="680" y1="510" x2="680" y2="350" stroke="#1f2937" stroke-width="10"/>
  <line x1="680" y1="395" x2="650" y2="355" stroke="#1f2937" stroke-width="6"/>
  <line x1="680" y1="395" x2="710" y2="360" stroke="#1f2937" stroke-width="6"/>
  <line x1="680" y1="435" x2="660" y2="405" stroke="#1f2937" stroke-width="5"/>
  <line x1="680" y1="435" x2="705" y2="410" stroke="#1f2937" stroke-width="5"/>
  <line x1="650" y1="355" x2="635" y2="330" stroke="#1f2937" stroke-width="3"/>
  <line x1="710" y1="360" x2="725" y2="340" stroke="#1f2937" stroke-width="3"/>

  <!-- Jack-o'-Lanterns (Halloween-Kürbisse mit Gesichtern) -->
  <!-- Kürbis 1 (groß, Mitte) -->
  <ellipse cx="400" cy="510" rx="80" ry="75" fill="#f97316"/>
  <ellipse cx="395" cy="505" rx="70" ry="65" fill="#fb923c" opacity="0.7"/>
  <rect x="395" y="435" width="10" height="25" fill="#15803d"/>
  <path d="M 390 445 Q 400 440 410 445" stroke="#15803d" stroke-width="3" fill="none"/>

  <!-- Rippen im Kürbis -->
  <path d="M 345 485 Q 350 510 345 535" stroke="#ea580c" stroke-width="4" fill="none" opacity="0.6"/>
  <path d="M 370 470 Q 372 510 370 550" stroke="#ea580c" stroke-width="4" fill="none" opacity="0.6"/>
  <path d="M 400 465 Q 400 510 400 555" stroke="#ea580c" stroke-width="4" fill="none" opacity="0.6"/>
  <path d="M 430 470 Q 428 510 430 550" stroke="#ea580c" stroke-width="4" fill="none" opacity="0.6"/>
  <path d="M 455" cy="485" Q 450 510 455 535" stroke="#ea580c" stroke-width="4" fill="none" opacity="0.6"/>

  <!-- Gruseliges Gesicht -->
  <path d="M 360 490 L 375 505 L 360 520 Z" fill="#fbbf24" opacity="0.9"/>
  <path d="M 440 490 L 425 505 L 440 520 Z" fill="#fbbf24" opacity="0.9"/>
  <path d="M 385 525 L 395 540 L 385 545" fill="#fbbf24" opacity="0.9"/>
  <path d="M 415 525 L 405 540 L 415 545" fill="#fbbf24" opacity="0.9"/>
  <path d="M 365 545 Q 400 560 435 545" stroke="#fbbf24" stroke-width="6" fill="none" opacity="0.9"/>
  <path d="M 368 546 Q 400 558 432 546" stroke="#fbbf24" stroke-width="3" fill="#1e293b"/>

  <!-- Kürbis 2 (mittelgroß, links) -->
  <ellipse cx="200" cy="530" rx="60" ry="55" fill="#fb923c"/>
  <ellipse cx="196" cy="526" rx="52" ry="48" fill="#f97316" opacity="0.7"/>
  <rect x="196" y="475" width="8" height="20" fill="#15803d"/>

  <!-- Rippen -->
  <path d="M 155 515 Q 158 530 155 545" stroke="#ea580c" stroke-width="3" fill="none" opacity="0.6"/>
  <path d="M 178 505 Q 179 530 178 555" stroke="#ea580c" stroke-width="3" fill="none" opacity="0.6"/>
  <path d="M 200 503 Q 200 530 200 558" stroke="#ea580c" stroke-width="3" fill="none" opacity="0.6"/>
  <path d="M 222 505 Q 221 530 222 555" stroke="#ea580c" stroke-width="3" fill="none" opacity="0.6"/>

  <!-- Gesicht -->
  <path d="M 175 520 L 185 528 L 175 536 Z" fill="#fbbf24" opacity="0.9"/>
  <path d="M 225 520 L 215 528 L 225 536 Z" fill="#fbbf24" opacity="0.9"/>
  <circle cx="200" cy="545" r="5" fill="#fbbf24" opacity="0.9"/>
  <path d="M 180 555 Q 200 565 220 555" stroke="#fbbf24" stroke-width="5" fill="none" opacity="0.9"/>

  <!-- Kürbis 3 (klein, rechts) -->
  <ellipse cx="580" cy="540" rx="45" ry="42" fill="#f97316"/>
  <ellipse cx="577" cy="537" rx="40" ry="37" fill="#fb923c" opacity="0.7"/>
  <rect x="575" y="498" width="6" height="15" fill="#15803d"/>

  <!-- Rippen -->
  <path d="M 545 530 Q 547 540 545 550" stroke="#ea580c" stroke-width="2.5" fill="none" opacity="0.6"/>
  <path d="M 563" cy="525" Q 563 540 563 555" stroke="#ea580c" stroke-width="2.5" fill="none" opacity="0.6"/>
  <path d="M 580 523 Q 580 540 580 557" stroke="#ea580c" stroke-width="2.5" fill="none" opacity="0.6"/>
  <path d="M 597 525 Q 597 540 597 555" stroke="#ea580c" stroke-width="2.5" fill="none" opacity="0.6"/>

  <!-- Gesicht -->
  <path d="M 560 532 L 567 538 L 560 544 Z" fill="#fbbf24" opacity="0.9"/>
  <path d="M 600 532 L 593 538 L 600 544 Z" fill="#fbbf24" opacity="0.9"/>
  <circle cx="580" cy="552" r="4" fill="#fbbf24" opacity="0.9"/>
  <path d="M 565 560 Q 580 567 595 560" stroke="#fbbf24" stroke-width="4" fill="none" opacity="0.9"/>

  <!-- Fledermäuse (mehrere) -->
  <g transform="translate(450, 220)">
    <path d="M -18 0 Q -12 -10 0 -6 Q 12 -10 18 0" fill="#000000"/>
    <circle cx="0" cy="0" r="5" fill="#0f172a"/>
    <path d="M -18 0 Q -23 3 -20 8" fill="#000000"/>
    <path d="M 18 0 Q 23 3 20 8" fill="#000000"/>
  </g>

  <g transform="translate(180, 260)">
    <path d="M -15 0 Q -10 -8 0 -5 Q 10 -8 15 0" fill="#000000"/>
    <circle cx="0" cy="0" r="4" fill="#0f172a"/>
    <path d="M -15 0 Q -19 2 -17 6" fill="#000000"/>
    <path d="M 15 0 Q 19 2 17 6" fill="#000000"/>
  </g>

  <g transform="translate(550, 280)">
    <path d="M -16 0 Q -11 -9 0 -5.5 Q 11 -9 16 0" fill="#000000"/>
    <circle cx="0" cy="0" r="4.5" fill="#0f172a"/>
    <path d="M -16 0 Q -20 2.5 -18 7" fill="#000000"/>
    <path d="M 16 0 Q 20 2.5 18 7" fill="#000000"/>
  </g>

  <!-- Geisterfigur (schwebend) -->
  <g transform="translate(500, 360)">
    <ellipse cx="0" cy="-20" rx="22" ry="25" fill="#f8fafc" opacity="0.85"/>
    <path d="M -22 -5 Q -20 15 -25 35 Q -15 30 0 38 Q 15 30 25 35 Q 20 15 22 -5" fill="#f8fafc" opacity="0.85"/>
    <circle cx="-8" cy="-25" r="4" fill="#1e293b"/>
    <circle cx="8" cy="-25" r="4" fill="#1e293b"/>
    <ellipse cx="0" cy="-15" rx="6" ry="8" fill="#1e293b" opacity="0.7"/>
  </g>

  <!-- Nebelschwaden am Boden -->
  <ellipse cx="300" cy="550" rx="120" ry="25" fill="#e2e8f0" opacity="0.2"/>
  <ellipse cx="500" cy="560" rx="140" ry="28" fill="#e2e8f0" opacity="0.2"/>
  <ellipse cx="150" cy="555" rx="100" ry="20" fill="#e2e8f0" opacity="0.15"/>
  <ellipse cx="650" cy="552" rx="110" ry="22" fill="#e2e8f0" opacity="0.15"/>
</svg>
