<svg xmlns="http://www.w3.org/2000/svg" viewBox="0 0 600 800" role="img" aria-label="Dezember - Winterzauber Portrait">
  <defs>
    <linearGradient id="decemberPortraitSky" x1="0%" y1="0%" x2="0%" y2="100%">
      <stop offset="0%" style="stop-color:#0c1929;stop-opacity:1" />
      <stop offset="40%" style="stop-color:#1a2a3a;stop-opacity:1" />
      <stop offset="100%" style="stop-color:#2a3a4a;stop-opacity:1" />
    </linearGradient>
    <radialGradient id="moonGlowDec" cx="50%" cy="50%">
      <stop offset="0%" style="stop-color:#fef9e7;stop-opacity:1" />
      <stop offset="60%" style="stop-color:#fef3c7;stop-opacity:0.7" />
      <stop offset="100%" style="stop-color:#fdd835;stop-opacity:0" />
    </radialGradient>
  </defs>

  <!-- Tiefblauer Winternachthimmel -->
  <rect width="600" height="800" fill="url(#decemberPortraitSky)"/>

  <!-- Vollmond (groß und hell) -->
  <circle cx="300" cy="100" r="100" fill="url(#moonGlowDec)" opacity="0.4"/>
  <circle cx="300" cy="100" r="80" fill="#fef9e7" opacity="0.95"/>
  <circle cx="300" cy="100" r="72" fill="#fff8e1" opacity="0.9"/>

  <!-- Mondkrater -->
  <circle cx="285" cy="88" r="12" fill="#fef3c7" opacity="0.4"/>
  <circle cx="310" cy="98" r="10" fill="#fef3c7" opacity="0.4"/>
  <circle cx="292" cy="112" r="11" fill="#fef3c7" opacity="0.4"/>
  <circle cx="315" cy="110" r="8" fill="#fef3c7" opacity="0.4"/>

  <!-- Sterne (viele, funkelnde) -->
  <circle cx="80" cy="50" r="2.8" fill="#fef08a"/>
  <circle cx="150" cy="70" r="2.5" fill="#fef08a"/>
  <circle cx="220" cy="40" r="2.8" fill="#fef08a"/>
  <circle cx="420" cy="60" r="2.5" fill="#fef08a"/>
  <circle cx="500" cy="80" r="2.8" fill="#fef08a"/>
  <circle cx="560" cy="50" r="2.5" fill="#fef08a"/>
  <circle cx="110" cy="130" r="2.3" fill="#fef08a"/>
  <circle cx="450" cy="140" r="2.7" fill="#fef08a"/>
  <circle cx="380" cy="150" r="2.3" fill="#fef08a"/>
  <circle cx="520" cy="130" r="2.5" fill="#fef08a"/>

  <!-- Funkelnde Sterne (mit Kreuz) -->
  <g>
    <line x1="190" y1="90" x2="190" y2="102" stroke="#fef08a" stroke-width="1.8"/>
    <line x1="184" y1="96" x2="196" y2="96" stroke="#fef08a" stroke-width="1.8"/>
  </g>
  <g>
    <line x1="360" y1="55" x2="360" y2="65" stroke="#fef08a" stroke-width="1.5"/>
    <line x1="355" y1="60" x2="365" y2="60" stroke="#fef08a" stroke-width="1.5"/>
  </g>
  <g>
    <line x1="480" y1="170" x2="480" y2="180" stroke="#fef08a" stroke-width="1.6"/>
    <line x1="475" y1="175" x2="485" y2="175" stroke="#fef08a" stroke-width="1.6"/>
  </g>

  <!-- Schneehügel (mehrere Schichten) -->
  <ellipse cx="300" cy="560" rx="450" ry="110" fill="#f0f9ff"/>
  <ellipse cx="150" cy="580" rx="300" ry="90" fill="#e0f2fe"/>
  <ellipse cx="450" cy="570" rx="280" ry="100" fill="#dbeafe"/>
  <ellipse cx="250" cy="600" rx="260" ry="80" fill="#f0f9ff" opacity="0.8"/>

  <!-- Weihnachtshaus (festlich beleuchtet) -->
  <rect x="210" y="365" width="190" height="180" fill="#fef9e7"/>
  <rect x="215" y="370" width="180" height="170" fill="#fffef5"/>

  <!-- Verschneites Dach -->
  <polygon points="305,295 190,365 420,365" fill="#b71c1c"/>
  <polygon points="305,295 200,360 410,360" fill="#c62828"/>
  <!-- Schnee auf Dach -->
  <path d="M 190,365 L 195,360 L 305,295 L 415,360 L 420,365 L 410,367 L 305,300 L 200,367 Z" fill="#f0f9ff"/>
  <path d="M 195 365 L 305 300 L 415 365" stroke="#e0f2fe" stroke-width="4" fill="none"/>

  <!-- Schornstein (mit Rauch) -->
  <rect x="345" y="300" width="24" height="65" fill="#b71c1c"/>
  <rect x="343" y="298" width="28" height="4" fill="#c62828"/>
  <rect x="343" y="298" width="28" height="6" fill="#f0f9ff"/>
  <!-- Rauch -->
  <ellipse cx="357" cy="286" rx="11" ry="9" fill="#cfd8dc" opacity="0.7"/>
  <ellipse cx="354" cy="271" rx="13" ry="10" fill="#cfd8dc" opacity="0.6"/>
  <ellipse cx="359" cy="254" rx="15" ry="12" fill="#cfd8dc" opacity="0.5"/>
  <ellipse cx="356" cy="235" rx="17" ry="13" fill="#cfd8dc" opacity="0.4"/>

  <!-- Fenster (warm beleuchtet - Weihnachtsatmosphäre) -->
  <rect x="245" y="395" width="50" height="58" fill="#ffd54f" opacity="0.9"/>
  <rect x="269" y="395" width="2.5" height="58" fill="#6d4c41"/>
  <rect x="245" y="422" width="50" height="2.5" fill="#6d4c41"/>
  <!-- Weihnachtsstern im Fenster -->
  <text x="260" y="430" font-size="20" opacity="0.8">⭐</text>

  <rect x="325" y="395" width="50" height="58" fill="#ffd54f" opacity="0.9"/>
  <rect x="349" y="395" width="2.5" height="58" fill="#6d4c41"/>
  <rect x="325" y="422" width="50" height="2.5" fill="#6d4c41"/>
  <text x="340" y="430" font-size="20" opacity="0.8">⭐</text>

  <!-- Rundfenster Dach (beleuchtet) -->
  <circle cx="305" cy="330" r="18" fill="#ffb74d" opacity="0.9"/>
  <line x1="305" y1="312" x2="305" y2="348" stroke="#6d4c41" stroke-width="2.5"/>
  <line x1="287" y1="330" x2="323" y2="330" stroke="#6d4c41" stroke-width="2.5"/>

  <!-- Tür (weihnachtlich dekoriert) -->
  <rect x="270" y="490" width="70" height="55" fill="#b71c1c"/>
  <rect x="275" y="495" width="60" height="48" fill="#d32f2f"/>
  <circle cx="328" cy="522" r="4" fill="#ffd54f"/>

  <!-- Weihnachtskranz an Tür -->
  <circle cx="305" cy="512" r="20" fill="#2e7d32"/>
  <circle cx="296" cy="505" r="5" fill="#f44336"/>
  <circle cx="314" cy="505" r="5" fill="#f44336"/>
  <circle cx="296" cy="519" r="5" fill="#f44336"/>
  <circle cx="314" cy="519" r="5" fill="#f44336"/>
  <circle cx="305" cy="500" r="5" fill="#f44336"/>
  <circle cx="305" cy="524" r="5" fill="#f44336"/>
  <path d="M 305 532 L 300 542 L 305 540 L 310 542 Z" fill="#d32f2f"/>

  <!-- Weihnachtsbeleuchtung am Haus -->
  <g>
    <circle cx="220" cy="360" r="4" fill="#ffeb3b" opacity="0.8"/>
    <circle cx="240" cy="360" r="4" fill="#f44336" opacity="0.8"/>
    <circle cx="260" cy="360" r="4" fill="#4caf50" opacity="0.8"/>
    <circle cx="280" cy="360" r="4" fill="#2196f3" opacity="0.8"/>
    <circle cx="300" cy="360" r="4" fill="#ffeb3b" opacity="0.8"/>
    <circle cx="320" cy="360" r="4" fill="#f44336" opacity="0.8"/>
    <circle cx="340" cy="360" r="4" fill="#4caf50" opacity="0.8"/>
    <circle cx="360" cy="360" r="4" fill="#2196f3" opacity="0.8"/>
    <circle cx="380" cy="360" r="4" fill="#ffeb3b" opacity="0.8"/>
  </g>

  <!-- Verschneiter Weihnachtsbaum (groß, links) -->
  <path d="M 100 600 L 100 350 L 20 480 L 45 480 L 0 560 L 30 560 L -10 625 L 100 625 L 210 625 L 170 560 L 200 560 L 155 480 L 180 480 Z" fill="#1b5e20"/>
  <path d="M 102 600 L 102 352 L 22 480 L 47 480 L 2 560 L 32 560 L -8 625 L 102 625 L 212 625 L 172 560 L 202 560 L 157 480 L 182 480 Z" fill="#2e7d32" opacity="0.9"/>
  <rect x="93" y="625" width="14" height="30" fill="#6d4c41"/>

  <!-- Schnee auf Baum -->
  <ellipse cx="100" cy="360" rx="48" ry="14" fill="#f0f9ff"/>
  <ellipse cx="100" cy="415" rx="60" ry="16" fill="#f0f9ff"/>
  <ellipse cx="100" cy="475" rx="72" ry="18" fill="#f0f9ff"/>
  <ellipse cx="100" cy="540" rx="84" ry="20" fill="#f0f9ff"/>
  <path d="M 20 480 L 25 477 L 175 477 L 180 480" fill="#e0f2fe"/>
  <path d="M 0 560 L 5 557 L 195 557 L 200 560" fill="#e0f2fe"/>
  <path d="M -10 625 L -5 622 L 205 622 L 210 625" fill="#e0f2fe"/>

  <!-- Christbaumschmuck -->
  <circle cx="85" cy="400" r="6" fill="#f44336"/>
  <circle cx="115" cy="410" r="6" fill="#ffeb3b"/>
  <circle cx="90" cy="450" r="6" fill="#2196f3"/>
  <circle cx="110" cy="465" r="6" fill="#f44336"/>
  <circle cx="75" cy="520" r="6" fill="#ffeb3b"/>
  <circle cx="125" cy="530" r="6" fill="#2196f3"/>
  <!-- Stern oben -->
  <text x="90" y="355" font-size="24" opacity="0.9">⭐</text>

  <!-- Zweiter Weihnachtsbaum (kleiner, rechts) -->
  <path d="M 520 630 L 520 470 L 470 540 L 485 540 L 450 595 L 470 595 L 440 640 L 520 640 L 600 640 L 570 595 L 590 595 L 555 540 L 570 540 Z" fill="#1b5e20"/>
  <path d="M 522 630 L 522 472 L 472 540 L 487 540 L 452 595 L 472 595 L 442 640 L 522 640 L 602 640 L 572 595 L 592 595 L 557 540 L 572 540 Z" fill="#2e7d32" opacity="0.9"/>
  <rect x="514" y="640" width="12" height="25" fill="#6d4c41"/>

  <!-- Schnee auf kleinem Baum -->
  <ellipse cx="520" cy="480" rx="40" ry="12" fill="#f0f9ff"/>
  <ellipse cx="520" cy="525" rx="50" ry="14" fill="#f0f9ff"/>
  <ellipse cx="520" cy="575" rx="62" ry="16" fill="#f0f9ff"/>
  <path d="M 470 540 L 475 537 L 565 537 L 570 540" fill="#e0f2fe"/>
  <path d="M 450 595 L 455 592 L 585 592 L 590 595" fill="#e0f2fe"/>

  <!-- Schneemann (detailliert, mit Weihnachtsmütze) -->
  <g>
    <circle cx="360" cy="635" r="35" fill="#ffffff"/>
    <circle cx="360" cy="590" r="28" fill="#ffffff"/>
    <circle cx="360" cy="555" r="20" fill="#ffffff"/>

    <!-- Gesicht -->
    <circle cx="352" cy="550" r="2.8" fill="#212121"/>
    <circle cx="368" cy="550" r="2.8" fill="#212121"/>
    <polygon points="360,555 354,557 360,559" fill="#ff6600"/>

    <!-- Lächeln -->
    <circle cx="354" cy="560" r="2" fill="#212121"/>
    <circle cx="360" cy="561" r="2" fill="#212121"/>
    <circle cx="366" cy="560" r="2" fill="#212121"/>

    <!-- Knöpfe -->
    <circle cx="360" cy="585" r="2.5" fill="#212121"/>
    <circle cx="360" cy="595" r="2.5" fill="#212121"/>
    <circle cx="360" cy="620" r="3" fill="#212121"/>
    <circle cx="360" cy="630" r="3" fill="#212121"/>

    <!-- Arme (Zweige) -->
    <line x1="342" y1="590" x2="320" y2="580" stroke="#6d4c41" stroke-width="4"/>
    <line x1="378" y1="590" x2="400" y2="580" stroke="#6d4c41" stroke-width="4"/>

    <!-- Weihnachtsmütze (rot) -->
    <path d="M 345 538 Q 360 528 375 538" fill="#d32f2f"/>
    <rect x="348" y="536" width="24" height="8" fill="#f44336"/>
    <circle cx="360" cy="528" r="6" fill="#ffffff"/>

    <!-- Schal (grün-rot) -->
    <ellipse cx="360" cy="570" rx="22" ry="8" fill="#4caf50"/>
    <rect x="338" y="567" width="8" height="20" fill="#4caf50"/>
    <rect x="338" y="584" width="6" height="4" fill="#f44336"/>
    <rect x="340" y="584" width="6" height="4" fill="#f44336"/>
  </g>

  <!-- Schneeflocken (fallend, viele!) -->
  <g opacity="0.9">
    <!-- Große Schneeflocken mit Details -->
    <g transform="translate(180, 210)">
      <circle cx="0" cy="0" r="4.5" fill="#ffffff"/>
      <line x1="-7" y1="0" x2="7" y2="0" stroke="#ffffff" stroke-width="1.8"/>
      <line x1="0" y1="-7" x2="0" y2="7" stroke="#ffffff" stroke-width="1.8"/>
      <line x1="-5" y1="-5" x2="5" y2="5" stroke="#ffffff" stroke-width="1.2"/>
      <line x1="5" y1="-5" x2="-5" y2="5" stroke="#ffffff" stroke-width="1.2"/>
    </g>

    <g transform="translate(420, 250)">
      <circle cx="0" cy="0" r="4.5" fill="#ffffff"/>
      <line x1="-7" y1="0" x2="7" y2="0" stroke="#ffffff" stroke-width="1.8"/>
      <line x1="0" y1="-7" x2="0" y2="7" stroke="#ffffff" stroke-width="1.8"/>
      <line x1="-5" y1="-5" x2="5" y2="5" stroke="#ffffff" stroke-width="1.2"/>
      <line x1="5" y1="-5" x2="-5" y2="5" stroke="#ffffff" stroke-width="1.2"/>
    </g>

    <g transform="translate(280, 290)">
      <circle cx="0" cy="0" r="4.5" fill="#ffffff"/>
      <line x1="-7" y1="0" x2="7" y2="0" stroke="#ffffff" stroke-width="1.8"/>
      <line x1="0" y1="-7" x2="0" y2="7" stroke="#ffffff" stroke-width="1.8"/>
      <line x1="-5" y1="-5" x2="5" y2="5" stroke="#ffffff" stroke-width="1.2"/>
      <line x1="5" y1="-5" x2="-5" y2="5" stroke="#ffffff" stroke-width="1.2"/>
    </g>

    <!-- Mittlere und kleine Schneeflocken -->
    <circle cx="140" cy="330" r="3.5" fill="#ffffff"/>
    <circle cx="500" cy="350" r="3.5" fill="#ffffff"/>
    <circle cx="340" cy="380" r="3.5" fill="#ffffff"/>
    <circle cx="220" cy="420" r="3" fill="#ffffff"/>
    <circle cx="480" cy="440" r="3" fill="#ffffff"/>
    <circle cx="380" cy="470" r="3" fill="#ffffff"/>
    <circle cx="160" cy="500" r="2.8" fill="#ffffff"/>
    <circle cx="520" cy="520" r="2.8" fill="#ffffff"/>
  </g>

  <!-- Schneebedeckter Boden vorne -->
  <ellipse cx="300" cy="740" rx="480" ry="140" fill="#fef9ff"/>
  <rect x="0" y="710" width="600" height="90" fill="#fef9ff"/>

  <!-- Fußspuren im Schnee -->
  <g opacity="0.3">
    <ellipse cx="250" cy="720" rx="8" ry="14" fill="#d0e0e8" transform="rotate(-12 250 720)"/>
    <ellipse cx="270" cy="725" rx="8" ry="14" fill="#d0e0e8" transform="rotate(10 270 725)"/>
    <ellipse cx="290" cy="730" rx="8" ry="14" fill="#d0e0e8" transform="rotate(-12 290 730)"/>
    <ellipse cx="310" cy="735" rx="8" ry="14" fill="#d0e0e8" transform="rotate(10 310 735)"/>
  </g>

  <!-- Emoji-Dekoration -->
  <text x="260" y="120" font-size="48" opacity="0.4">🌙</text>
  <text x="65" y="685" font-size="52" opacity="0.9">🎄</text>
  <text x="490" y="675" font-size="46" opacity="0.9">🎄</text>
  <text x="325" y="675" font-size="38" opacity="0.85">⛄</text>
  <text x="160" y="245" font-size="32" opacity="0.9">❄️</text>
  <text x="400" y="285" font-size="32" opacity="0.9">❄️</text>
  <text x="260" y="325" font-size="30" opacity="0.85">❄️</text>
  <text x="120" y="365" font-size="28" opacity="0.8">❄️</text>
  <text x="480" y="385" font-size="28" opacity="0.8">❄️</text>
  <text x="360" y="415" font-size="26" opacity="0.75">❄️</text>
  <text x="140" y="85" font-size="24" opacity="0.85">✨</text>
  <text x="360" y="70" font-size="22" opacity="0.85">✨</text>
  <text x="480" y="185" font-size="22" opacity="0.85">✨</text>
  <text x="85" y="420" font-size="28" opacity="0.8">⭐</text>
  <text x="275" y="540" font-size="30" opacity="0.75">🎅</text>
  <text x="235" y="375" font-size="22" opacity="0.75">🔔</text>
</svg>
