<svg xmlns="http://www.w3.org/2000/svg" viewBox="0 0 600 800" role="img" aria-label="Juni - Sommerbeginn Portrait">
  <defs>
    <linearGradient id="junePortraitSky" x1="0%" y1="0%" x2="0%" y2="100%">
      <stop offset="0%" style="stop-color:#0288d1;stop-opacity:1" />
      <stop offset="40%" style="stop-color:#039be5;stop-opacity:1" />
      <stop offset="100%" style="stop-color:#03a9f4;stop-opacity:1" />
    </linearGradient>
    <linearGradient id="lakeWaterPortrait" x1="0%" y1="0%" x2="0%" y2="100%">
      <stop offset="0%" style="stop-color:#4dd0e1;stop-opacity:0.8" />
      <stop offset="100%" style="stop-color:#00acc1;stop-opacity:0.9" />
    </linearGradient>
  </defs>

  <!-- Tiefblauer Sommerhimmel -->
  <rect width="600" height="800" fill="url(#junePortraitSky)"/>

  <!-- Strahlende Sonne (oben, zentral) -->
  <circle cx="300" cy="100" r="80" fill="#ffffcc" opacity="0.5"/>
  <circle cx="300" cy="100" r="65" fill="#ffff99" opacity="0.7"/>
  <circle cx="300" cy="100" r="52" fill="#ffffee"/>

  <!-- Intensive Sonnenstrahlen -->
  <line x1="300" y1="15" x2="300" y2="-10" stroke="#fdd835" stroke-width="7" opacity="0.8"/>
  <line x1="385" y1="100" x2="410" y2="100" stroke="#fdd835" stroke-width="7" opacity="0.8"/>
  <line x1="215" y1="100" x2="190" y2="100" stroke="#fdd835" stroke-width="7" opacity="0.8"/>
  <line x1="300" y1="185" x2="300" y2="210" stroke="#fdd835" stroke-width="7" opacity="0.8"/>
  <line x1="360" y1="40" x2="380" y2="20" stroke="#fdd835" stroke-width="6" opacity="0.8"/>
  <line x1="360" y1="160" x2="380" y2="180" stroke="#fdd835" stroke-width="6" opacity="0.8"/>
  <line x1="240" y1="160" x2="220" y2="180" stroke="#fdd835" stroke-width="6" opacity="0.8"/>
  <line x1="240" y1="40" x2="220" y2="20" stroke="#fdd835" stroke-width="6" opacity="0.8"/>

  <!-- Kleine weiße Sommerwolken -->
  <ellipse cx="120" cy="140" rx="55" ry="32" fill="#ffffff" opacity="0.85"/>
  <ellipse cx="155" cy="145" rx="45" ry="28" fill="#ffffff" opacity="0.85"/>

  <ellipse cx="490" cy="160" rx="50" ry="30" fill="#ffffff" opacity="0.8"/>
  <ellipse cx="520" cy="165" rx="42" ry="26" fill="#ffffff" opacity="0.8"/>

  <!-- Sanfte grüne Hügel im Hintergrund -->
  <ellipse cx="300" cy="430" rx="350" ry="70" fill="#81c784" opacity="0.7"/>
  <ellipse cx="150" cy="450" rx="230" ry="60" fill="#66bb6a" opacity="0.7"/>
  <ellipse cx="450" cy="440" rx="200" ry="65" fill="#4caf50" opacity="0.7"/>

  <!-- See/Wasser (mittig-unten) -->
  <ellipse cx="300" cy="580" rx="380" ry="90" fill="url(#lakeWaterPortrait)"/>
  <ellipse cx="250" cy="570" rx="320" ry="70" fill="#4dd0e1" opacity="0.4"/>

  <!-- Wellenmuster im Wasser -->
  <path d="M 50 560 Q 120 555 190 560 Q 260 565 330 560" stroke="#ffffff" stroke-width="2.5" fill="none" opacity="0.5"/>
  <path d="M 350 570 Q 420 565 490 570" stroke="#ffffff" stroke-width="2.5" fill="none" opacity="0.5"/>
  <path d="M 80 585 Q 150 580 220 585 Q 290 590 360 585" stroke="#ffffff" stroke-width="2.5" fill="none" opacity="0.5"/>

  <!-- Bootshaus am Seeufer -->
  <rect x="70" y="490" width="90" height="75" fill="#fef3c7"/>
  <path d="M 60 490 L 115 445 L 170 490 Z" fill="#d32f2f"/>
  <path d="M 65 490 L 115 450 L 165 490 Z" fill="#e53935"/>

  <!-- Fenster Bootshaus -->
  <rect x="90" y="510" width="25" height="28" fill="#90caf9"/>
  <line x1="102.5" y1="510" x2="102.5" y2="538" stroke="#5d4037" stroke-width="2"/>
  <line x1="90" y1="524" x2="115" y2="524" stroke="#5d4037" stroke-width="2"/>

  <rect x="125" y="510" width="25" height="28" fill="#90caf9"/>
  <line x1="137.5" y1="510" x2="137.5" y2="538" stroke="#5d4037" stroke-width="2"/>
  <line x1="125" y1="524" x2="150" y2="524" stroke="#5d4037" stroke-width="2"/>

  <!-- Bootssteg -->
  <rect x="95" y="560" width="10" height="55" fill="#8d6e63"/>
  <rect x="115" y="565" width="10" height="50" fill="#8d6e63"/>
  <rect x="135" y="570" width="10" height="45" fill="#8d6e63"/>
  <rect x="90" y="580" width="60" height="7" fill="#6d4c41"/>
  <rect x="90" y="595" width="60" height="7" fill="#6d4c41"/>

  <!-- Ruderboot am Steg -->
  <ellipse cx="165" cy="600" rx="38" ry="16" fill="#8d6e63"/>
  <ellipse cx="165" cy="597" rx="35" ry="13" fill="#a1887f"/>
  <line x1="153" y1="600" x2="177" y2="600" stroke="#bcaaa4" stroke-width="4"/>
  <rect x="160" y="590" width="3" height="22" fill="#d7ccc8"/>

  <!-- Kirche am Seeufer (rechts) -->
  <rect x="460" y="440" width="110" height="110" fill="#fff9c4"/>
  <path d="M 450 440 L 515 380 L 580 440 Z" fill="#8d6e63"/>

  <!-- Kirchturm -->
  <rect x="500" y="360" width="30" height="80" fill="#fef9e7"/>
  <path d="M 495 360 L 515 325 L 535 360 Z" fill="#8d6e63"/>
  <line x1="515" y1="325" x2="515" y2="305" stroke="#6d4c41" stroke-width="3.5"/>
  <path d="M 510 305 L 515 293 L 520 305 Z" fill="#ffd54f"/>

  <!-- Kirchenfenster -->
  <circle cx="515" cy="405" r="11" fill="#90caf9"/>
  <rect x="480" y="465" width="22" height="32" fill="#64b5f6"/>
  <path d="M 480 465 Q 491 460 502 465" stroke="#5d4037" stroke-width="2" fill="none"/>

  <rect x="523" y="465" width="22" height="32" fill="#64b5f6"/>
  <path d="M 523 465 Q 534 460 545 465" stroke="#5d4037" stroke-width="2" fill="none"/>

  <!-- Kirchentür -->
  <rect x="500" y="510" width="30" height="40" fill="#8d6e63"/>
  <path d="M 500 510 Q 515 505 530 510" stroke="#6d4c41" stroke-width="2.5" fill="none"/>

  <!-- Großer Baum Mitte-Links -->
  <rect x="240" y="450" width="38" height="150" fill="#6d4c41"/>
  <circle cx="259" cy="420" r="80" fill="#66bb6a" opacity="0.9"/>
  <circle cx="220" cy="390" r="65" fill="#4caf50" opacity="0.9"/>
  <circle cx="298" cy="395" r="68" fill="#81c784" opacity="0.9"/>
  <circle cx="230" cy="440" r="58" fill="#66bb6a" opacity="0.85"/>
  <circle cx="288" cy="445" r="62" fill="#4caf50" opacity="0.85"/>

  <!-- Blattdetails -->
  <circle cx="245" cy="405" r="9" fill="#388e3c"/>
  <circle cx="270" cy="395" r="9" fill="#388e3c"/>
  <circle cx="258" cy="430" r="9" fill="#388e3c"/>

  <!-- Schaukel am Baum -->
  <line x1="235" y1="425" x2="235" y2="495" stroke="#8d6e63" stroke-width="4"/>
  <line x1="265" y1="425" x2="265" y2="495" stroke="#8d6e63" stroke-width="4"/>
  <rect x="230" y="495" width="40" height="10" fill="#a1887f"/>

  <!-- Sommerblumen am Seeufer -->
  <!-- Sonnenblumen (groß) -->
  <g>
    <circle cx="370" cy="620" r="18" fill="#fdd835"/>
    <circle cx="359" cy="614" r="7" fill="#fff9c4"/>
    <circle cx="381" cy="614" r="7" fill="#fff9c4"/>
    <circle cx="359" cy="626" r="7" fill="#fff9c4"/>
    <circle cx="381" cy="626" r="7" fill="#fff9c4"/>
    <circle cx="370" cy="620" r="10" fill="#f57c00"/>
    <rect x="368" y="630" width="4" height="70" fill="#689f38"/>

    <circle cx="420" cy="630" r="17" fill="#ffeb3b"/>
    <circle cx="410" cy="625" r="6.5" fill="#fff9c4"/>
    <circle cx="430" cy="625" r="6.5" fill="#fff9c4"/>
    <circle cx="420" cy="630" r="9" fill="#f57c00"/>
    <rect x="418" y="640" width="4" height="68" fill="#689f38"/>
  </g>

  <!-- Gänseblümchen (Wiese) -->
  <g>
    <circle cx="190" cy="660" r="9" fill="#ffffff"/>
    <circle cx="190" cy="660" r="4" fill="#fdd835"/>
    <rect x="188" y="665" width="4" height="48" fill="#7cb342"/>

    <circle cx="320" cy="670" r="9" fill="#ffffff"/>
    <circle cx="320" cy="670" r="4" fill="#fdd835"/>
    <rect x="318" y="675" width="4" height="45" fill="#7cb342"/>
  </g>

  <!-- Kornblumen -->
  <circle cx="260" cy="665" r="8" fill="#2196f3"/>
  <rect x="258" y="670" width="4" height="50" fill="#558b2f"/>

  <!-- Grünes Ufer/Wiese -->
  <ellipse cx="300" cy="720" rx="400" ry="100" fill="#9ccc65"/>
  <rect x="0" y="680" width="600" height="120" fill="#9ccc65"/>

  <!-- Grashalme -->
  <line x1="150" y1="705" x2="145" y2="685" stroke="#7cb342" stroke-width="3" opacity="0.7"/>
  <line x1="480" y1="710" x2="475" y2="690" stroke="#7cb342" stroke-width="3" opacity="0.7"/>
  <line x1="540" y1="715" x2="535" y2="695" stroke="#7cb342" stroke-width="3" opacity="0.7"/>

  <!-- Libellen über dem Wasser -->
  <g transform="translate(200, 555)">
    <ellipse cx="0" cy="0" rx="13" ry="5" fill="#00acc1" opacity="0.7"/>
    <ellipse cx="0" cy="0" rx="4" ry="13" fill="#0097a7" opacity="0.8"/>
    <rect x="-1.8" y="-20" width="3.6" height="20" fill="#00838f"/>
    <circle cx="0" cy="-22" r="3.5" fill="#006064"/>
    <ellipse cx="-10" cy="-6" rx="11" ry="3.5" fill="#b3e5fc" opacity="0.6"/>
    <ellipse cx="10" cy="-6" rx="11" ry="3.5" fill="#b3e5fc" opacity="0.6"/>
  </g>

  <g transform="translate(400, 570)">
    <ellipse cx="0" cy="0" rx="12" ry="4.5" fill="#00acc1" opacity="0.7"/>
    <ellipse cx="0" cy="0" rx="3.5" ry="12" fill="#0097a7" opacity="0.8"/>
    <rect x="-1.6" y="-18" width="3.2" height="18" fill="#00838f"/>
    <circle cx="0" cy="-20" r="3" fill="#006064"/>
    <ellipse cx="-9" cy="-5" rx="10" ry="3" fill="#b3e5fc" opacity="0.6"/>
    <ellipse cx="9" cy="-5" rx="10" ry="3" fill="#b3e5fc" opacity="0.6"/>
  </g>

  <!-- Schwan auf dem Wasser -->
  <g transform="translate(480, 590)">
    <ellipse cx="0" cy="0" rx="30" ry="15" fill="#ffffff"/>
    <ellipse cx="-10" cy="-2" rx="20" ry="12" fill="#f5f5f5"/>
    <path d="M -25 -6 Q -35 -15 -30 -25" stroke="#ffffff" stroke-width="10" fill="none"/>
    <circle cx="-30" cy="-28" r="8" fill="#ffffff"/>
    <ellipse cx="-35" cy="-28" rx="5" ry="3" fill="#ff9800"/>
    <circle cx="-31" cy="-29" r="2" fill="#212121"/>
  </g>

  <!-- Schmetterlinge -->
  <g transform="translate(350, 480) rotate(15)">
    <ellipse cx="-11" cy="0" rx="13" ry="17" fill="#9c27b0" opacity="0.9"/>
    <ellipse cx="11" cy="0" rx="13" ry="17" fill="#ba68c8" opacity="0.9"/>
    <ellipse cx="-11" cy="0" rx="5" ry="7" fill="#ffeb3b" opacity="0.6"/>
    <ellipse cx="11" cy="0" rx="5" ry="7" fill="#ffeb3b" opacity="0.6"/>
    <line x1="-12" y1="-11" x2="12" y2="-11" stroke="#212121" stroke-width="2"/>
    <circle cx="0" cy="-11" r="3" fill="#424242"/>
    <line x1="-3" y1="-12" x2="-6" y2="-17" stroke="#212121" stroke-width="1.5"/>
    <line x1="3" y1="-12" x2="6" y2="-17" stroke="#212121" stroke-width="1.5"/>
  </g>

  <!-- Vögel am Himmel -->
  <path d="M 420 260 Q 435 255 450 260" stroke="#212121" stroke-width="2.5" fill="none"/>
  <path d="M 180 240 Q 195 235 210 240" stroke="#212121" stroke-width="2.5" fill="none"/>
  <path d="M 450 220 Q 465 215 480 220" stroke="#212121" stroke-width="2.5" fill="none"/>

  <!-- Emoji-Dekoration -->
  <text x="260" y="120" font-size="50" opacity="0.45">☀️</text>
  <text x="90" y="155" font-size="30" opacity="0.4">☁️</text>
  <text x="465" y="175" font-size="28" opacity="0.4">☁️</text>
  <text x="205" y="485" font-size="38" opacity="0.75">🌳</text>
  <text x="345" y="650" font-size="36" opacity="0.9">🌻</text>
  <text x="165" y="685" font-size="28" opacity="0.85">🌼</text>
  <text x="45" y="555" font-size="32" opacity="0.7">🏡</text>
  <text x="130" y="625" font-size="30" opacity="0.75">🚣</text>
  <text x="445" y="605" font-size="34" opacity="0.8">🦆</text>
  <text x="320" y="505" font-size="26" opacity="0.85">🦋</text>
  <text x="175" y="575" font-size="24" opacity="0.7">💧</text>
  <text x="405" y="285" font-size="20" opacity="0.65">🐦</text>
  <text x="495" y="500" font-size="28" opacity="0.65">⛪</text>
</svg>
