<svg xmlns="http://www.w3.org/2000/svg" viewBox="0 0 600 800" role="img" aria-label="März - Frühlingserwachen Portrait">
  <defs>
    <linearGradient id="marchPortraitSky" x1="0%" y1="0%" x2="0%" y2="100%">
      <stop offset="0%" style="stop-color:#87ceeb;stop-opacity:1" />
      <stop offset="50%" style="stop-color:#6eb5d9;stop-opacity:1" />
      <stop offset="100%" style="stop-color:#5a9cc7;stop-opacity:1" />
    </linearGradient>
  </defs>

  <!-- Frühlingshimmel -->
  <rect width="600" height="800" fill="url(#marchPortraitSky)"/>

  <!-- Sonne (frühlingshaft) -->
  <circle cx="120" cy="100" r="65" fill="#ffffcc" opacity="0.4"/>
  <circle cx="120" cy="100" r="52" fill="#ffff99" opacity="0.7"/>
  <circle cx="120" cy="100" r="42" fill="#ffffdd"/>

  <!-- Sonnenstrahlen -->
  <line x1="120" y1="30" x2="120" y2="10" stroke="#ffeb3b" stroke-width="5" opacity="0.7"/>
  <line x1="190" y1="100" x2="210" y2="100" stroke="#ffeb3b" stroke-width="5" opacity="0.7"/>
  <line x1="120" y1="170" x2="120" y2="190" stroke="#ffeb3b" stroke-width="5" opacity="0.7"/>
  <line x1="50" y1="100" x2="30" y2="100" stroke="#ffeb3b" stroke-width="5" opacity="0.7"/>
  <line x1="170" y1="50" x2="185" y2="35" stroke="#ffeb3b" stroke-width="4" opacity="0.7"/>
  <line x1="170" y1="150" x2="185" y2="165" stroke="#ffeb3b" stroke-width="4" opacity="0.7"/>
  <line x1="70" y1="150" x2="55" y2="165" stroke="#ffeb3b" stroke-width="4" opacity="0.7"/>
  <line x1="70" y1="50" x2="55" y2="35" stroke="#ffeb3b" stroke-width="4" opacity="0.7"/>

  <!-- Frühlingswo lken (weiß, fluffig) -->
  <ellipse cx="400" cy="90" rx="70" ry="40" fill="#ffffff" opacity="0.9"/>
  <ellipse cx="450" cy="95" rx="60" ry="35" fill="#ffffff" opacity="0.9"/>
  <ellipse cx="355" cy="100" rx="50" ry="30" fill="#ffffff" opacity="0.9"/>

  <ellipse cx="520" cy="160" rx="60" ry="35" fill="#ffffff" opacity="0.85"/>
  <ellipse cx="560" cy="165" rx="50" ry="30" fill="#ffffff" opacity="0.85"/>

  <!-- Grüne Hügel (Frühling erwacht) -->
  <ellipse cx="300" cy="500" rx="380" ry="80" fill="#7cb342" opacity="0.7"/>
  <ellipse cx="150" cy="520" rx="250" ry="65" fill="#8bc34a" opacity="0.7"/>
  <ellipse cx="450" cy="510" rx="220" ry="70" fill="#9ccc65" opacity="0.7"/>

  <!-- Bauernhof mit Frühlings-Charme -->
  <rect x="220" y="400" width="180" height="150" fill="#fef3c7"/>
  <rect x="225" y="405" width="170" height="140" fill="#fff9e6"/>

  <!-- Grünes Dach (Frühling) -->
  <polygon points="310,330 200,400 420,400" fill="#558b2f"/>
  <polygon points="310,330 210,395 410,395" fill="#689f38"/>
  <path d="M 200,400 Q 270,370 310,365 Q 350,370 420,400" fill="#e8f5e9" opacity="0.5"/>

  <!-- Fenster -->
  <rect x="250" y="425" width="45" height="50" fill="#b3e5fc"/>
  <rect x="272" y="425" width="2" height="50" fill="#5d4037"/>
  <rect x="250" y="448" width="45" height="2" fill="#5d4037"/>

  <rect x="325" y="425" width="45" height="50" fill="#b3e5fc"/>
  <rect x="347" y="425" width="2" height="50" fill="#5d4037"/>
  <rect x="325" y="448" width="45" height="2" fill="#5d4037"/>

  <!-- Blumenfenster oben -->
  <circle cx="310" cy="365" r="16" fill="#ffecb3"/>
  <line x1="310" y1="349" x2="310" y2="381" stroke="#5d4037" stroke-width="2"/>
  <line x1="294" y1="365" x2="326" y2="365" stroke="#5d4037" stroke-width="2"/>

  <!-- Tür (Holz mit Frühlingsblumen) -->
  <rect x="270" y="500" width="70" height="50" fill="#8d6e63"/>
  <rect x="275" y="505" width="60" height="43" fill="#a1887f"/>
  <circle cx="330" cy="530" r="3.5" fill="#ffd54f"/>

  <!-- Schornstein -->
  <rect x="350" y="335" width="22" height="65" fill="#795548"/>
  <rect x="352" y="337" width="18" height="61" fill="#8d6e63"/>
  <ellipse cx="361" cy="322" rx="11" ry="15" fill="#cfd8dc" opacity="0.7"/>
  <ellipse cx="365" cy="302" rx="13" ry="18" fill="#cfd8dc" opacity="0.5"/>

  <!-- Blühender Baum links (Kirschblüten) -->
  <rect x="80" y="460" width="24" height="110" fill="#6d4c41"/>
  <circle cx="92" cy="430" r="70" fill="#ffb3ba" opacity="0.85"/>
  <circle cx="60" cy="405" r="55" fill="#ffcccb" opacity="0.85"/>
  <circle cx="124" cy="410" r="58" fill="#ffc0cb" opacity="0.85"/>
  <circle cx="70" cy="450" r="48" fill="#ffb3ba" opacity="0.8"/>
  <circle cx="114" cy="455" r="50" fill="#ffc0cb" opacity="0.8"/>

  <!-- Blüten-Details -->
  <circle cx="75" cy="420" r="6" fill="#ffffff" opacity="0.9"/>
  <circle cx="95" cy="415" r="6" fill="#ffffff" opacity="0.9"/>
  <circle cx="108" cy="430" r="6" fill="#ffffff" opacity="0.9"/>
  <circle cx="85" cy="445" r="6" fill="#ffffff" opacity="0.9"/>

  <!-- Grüner Baum rechts -->
  <rect x="480" y="480" width="22" height="95" fill="#6d4c41"/>
  <circle cx="491" cy="455" r="60" fill="#66bb6a" opacity="0.85"/>
  <circle cx="460" cy="435" r="48" fill="#81c784" opacity="0.85"/>
  <circle cx="522" cy="440" r="50" fill="#4caf50" opacity="0.85"/>
  <circle cx="470" cy="470" r="42" fill="#66bb6a" opacity="0.8"/>

  <!-- Frühlingsblumen im Vordergrund -->
  <!-- Krokusse (lila/gelb) -->
  <g>
    <ellipse cx="180" cy="630" rx="5" ry="12" fill="#9575cd"/>
    <ellipse cx="172" cy="632" rx="5" ry="12" fill="#9575cd"/>
    <ellipse cx="188" cy="632" rx="5" ry="12" fill="#9575cd"/>
    <circle cx="180" cy="628" r="4" fill="#fdd835"/>
    <rect x="178" y="635" width="4" height="40" fill="#558b2f"/>

    <ellipse cx="220" cy="640" rx="5" ry="12" fill="#7e57c2"/>
    <ellipse cx="212" cy="642" rx="5" ry="12" fill="#7e57c2"/>
    <ellipse cx="228" cy="642" rx="5" ry="12" fill="#7e57c2"/>
    <circle cx="220" cy="638" r="4" fill="#ffeb3b"/>
    <rect x="218" y="645" width="4" height="38" fill="#558b2f"/>
  </g>

  <!-- Narzissen -->
  <g>
    <circle cx="350" cy="650" r="10" fill="#ffeb3b"/>
    <circle cx="343" cy="647" r="4" fill="#fff9c4"/>
    <circle cx="357" cy="647" r="4" fill="#fff9c4"/>
    <circle cx="343" cy="653" r="4" fill="#fff9c4"/>
    <circle cx="357" cy="653" r="4" fill="#fff9c4"/>
    <circle cx="350" cy="650" r="5" fill="#ff9800"/>
    <rect x="348" y="655" width="4" height="50" fill="#689f38"/>

    <circle cx="400" cy="660" r="9" fill="#fdd835"/>
    <circle cx="394" cy="657" r="3.5" fill="#fff9c4"/>
    <circle cx="406" cy="657" r="3.5" fill="#fff9c4"/>
    <circle cx="400" cy="660" r="4.5" fill="#ff9800"/>
    <rect x="398" y="665" width="4" height="48" fill="#689f38"/>
  </g>

  <!-- Tulpen -->
  <g>
    <ellipse cx="480" cy="640" rx="8" ry="14" fill="#e91e63"/>
    <circle cx="480" cy="636" r="5" fill="#f06292"/>
    <rect x="478" y="650" width="4" height="55" fill="#558b2f"/>

    <ellipse cx="510" cy="650" rx="8" ry="14" fill="#d32f2f"/>
    <circle cx="510" cy="646" r="5" fill="#ef5350"/>
    <rect x="508" y="660" width="4" height="52" fill="#558b2f"/>
  </g>

  <!-- Gänseblümchen (gestreut) -->
  <g>
    <circle cx="260" cy="680" r="8" fill="#ffffff"/>
    <circle cx="254" cy="676" r="2.5" fill="#fff9c4"/>
    <circle cx="266" cy="676" r="2.5" fill="#fff9c4"/>
    <circle cx="254" cy="684" r="2.5" fill="#fff9c4"/>
    <circle cx="266" cy="684" r="2.5" fill="#fff9c4"/>
    <circle cx="260" cy="680" r="3.5" fill="#fdd835"/>
    <rect x="258" y="685" width="4" height="42" fill="#689f38"/>

    <circle cx="430" cy="690" r="8" fill="#ffffff"/>
    <circle cx="430" cy="690" r="3.5" fill="#fdd835"/>
    <rect x="428" y="695" width="4" height="40" fill="#689f38"/>
  </g>

  <!-- Wiese/Boden -->
  <ellipse cx="300" cy="740" rx="420" ry="100" fill="#a5d6a7"/>
  <rect x="0" y="700" width="600" height="100" fill="#a5d6a7"/>

  <!-- Grashalme -->
  <line x1="120" y1="720" x2="115" y2="700" stroke="#66bb6a" stroke-width="3" opacity="0.6"/>
  <line x1="280" y1="730" x2="275" y2="708" stroke="#66bb6a" stroke-width="3" opacity="0.6"/>
  <line x1="440" y1="725" x2="435" y2="705" stroke="#66bb6a" stroke-width="3" opacity="0.6"/>
  <line x1="520" y1="735" x2="515" y2="715" stroke="#66bb6a" stroke-width="3" opacity="0.6"/>

  <!-- Schmetterlinge -->
  <g transform="translate(320, 350) rotate(25)">
    <ellipse cx="-10" cy="0" rx="12" ry="16" fill="#ff9800" opacity="0.85"/>
    <ellipse cx="10" cy="0" rx="12" ry="16" fill="#ffc107" opacity="0.85"/>
    <ellipse cx="-10" cy="0" rx="4" ry="6" fill="#d32f2f" opacity="0.6"/>
    <ellipse cx="10" cy="0" rx="4" ry="6" fill="#d32f2f" opacity="0.6"/>
    <line x1="-11" y1="-10" x2="11" y2="-10" stroke="#212121" stroke-width="2"/>
    <circle cx="0" cy="-10" r="3" fill="#424242"/>
    <line x1="-3" y1="-11" x2="-6" y2="-16" stroke="#212121" stroke-width="1.5"/>
    <line x1="3" y1="-11" x2="6" y2="-16" stroke="#212121" stroke-width="1.5"/>
  </g>

  <g transform="translate(470, 390) rotate(-15)">
    <ellipse cx="-9" cy="0" rx="10" ry="14" fill="#e91e63" opacity="0.85"/>
    <ellipse cx="9" cy="0" rx="10" ry="14" fill="#f06292" opacity="0.85"/>
    <ellipse cx="-9" cy="0" rx="3" ry="5" fill="#ffeb3b" opacity="0.6"/>
    <ellipse cx="9" cy="0" rx="3" ry="5" fill="#ffeb3b" opacity="0.6"/>
    <line x1="-10" y1="-9" x2="10" y2="-9" stroke="#212121" stroke-width="2"/>
    <circle cx="0" cy="-9" r="2.5" fill="#424242"/>
    <line x1="-2.5" y1="-10" x2="-5" y2="-14" stroke="#212121" stroke-width="1.3"/>
    <line x1="2.5" y1="-10" x2="5" y2="-14" stroke="#212121" stroke-width="1.3"/>
  </g>

  <!-- Bienen -->
  <g transform="translate(240, 520)">
    <ellipse cx="0" cy="0" rx="8" ry="12" fill="#fdd835"/>
    <ellipse cx="0" cy="-3" rx="8" ry="3" fill="#212121" opacity="0.7"/>
    <ellipse cx="0" cy="3" rx="8" ry="3" fill="#212121" opacity="0.7"/>
    <ellipse cx="-10" cy="-2" rx="8" ry="3" fill="#e3f2fd" opacity="0.6"/>
    <ellipse cx="10" cy="-2" rx="8" ry="3" fill="#e3f2fd" opacity="0.6"/>
  </g>

  <!-- Vögel am Himmel -->
  <path d="M 280 190 Q 295 185 310 190" stroke="#424242" stroke-width="2.5" fill="none"/>
  <path d="M 330 210 Q 345 205 360 210" stroke="#424242" stroke-width="2.5" fill="none"/>
  <path d="M 300 170 Q 315 165 330 170" stroke="#424242" stroke-width="2.5" fill="none"/>

  <!-- Regentropfen (Aprilschauer naht) -->
  <g opacity="0.5">
    <line x1="520" y1="260" x2="522" y2="275" stroke="#5a9cc7" stroke-width="2"/>
    <line x1="540" y1="280" x2="542" y2="295" stroke="#5a9cc7" stroke-width="2"/>
    <line x1="560" y1="300" x2="562" y2="315" stroke="#5a9cc7" stroke-width="2"/>
  </g>

  <!-- Emoji-Dekoration -->
  <text x="80" y="115" font-size="38" opacity="0.4">☀️</text>
  <text x="370" y="105" font-size="30" opacity="0.35">☁️</text>
  <text x="50" y="475" font-size="40" opacity="0.8">🌸</text>
  <text x="290" y="365" font-size="26" opacity="0.85">🦋</text>
  <text x="155" y="655" font-size="28" opacity="0.85">🌷</text>
  <text x="325" y="670" font-size="26" opacity="0.85">🌼</text>
  <text x="455" y="665" font-size="28" opacity="0.85">🌺</text>
  <text x="210" y="535" font-size="22" opacity="0.75">🐝</text>
  <text x="265" y="205" font-size="18" opacity="0.65">🐦</text>
  <text x="460" y="510" font-size="30" opacity="0.7">🌳</text>
  <text x="520" y="175" font-size="24" opacity="0.4">☁️</text>
</svg>
