<svg xmlns="http://www.w3.org/2000/svg" viewBox="0 0 600 800" role="img" aria-label="Mai - Blütenpracht Portrait">
  <defs>
    <linearGradient id="mayPortraitSky" x1="0%" y1="0%" x2="0%" y2="100%">
      <stop offset="0%" style="stop-color:#4dd0e1;stop-opacity:1" />
      <stop offset="50%" style="stop-color:#26c6da;stop-opacity:1" />
      <stop offset="100%" style="stop-color:#00bcd4;stop-opacity:1" />
    </linearGradient>
  </defs>

  <!-- Strahlend blauer Frühlingshimmel -->
  <rect width="600" height="800" fill="url(#mayPortraitSky)"/>

  <!-- Sonne (strahlt kräftig) -->
  <circle cx="480" cy="110" r="75" fill="#ffffcc" opacity="0.5"/>
  <circle cx="480" cy="110" r="60" fill="#ffff99" opacity="0.7"/>
  <circle cx="480" cy="110" r="48" fill="#ffffdd"/>

  <!-- Sonnenstrahlen -->
  <line x1="480" y1="30" x2="480" y2="5" stroke="#fdd835" stroke-width="6" opacity="0.8"/>
  <line x1="560" y1="110" x2="585" y2="110" stroke="#fdd835" stroke-width="6" opacity="0.8"/>
  <line x1="540" y1="50" x2="560" y2="30" stroke="#fdd835" stroke-width="5" opacity="0.8"/>
  <line x1="540" y1="170" x2="560" y2="190" stroke="#fdd835" stroke-width="5" opacity="0.8"/>
  <line x1="420" y1="50" x2="400" y2="30" stroke="#fdd835" stroke-width="5" opacity="0.8"/>
  <line x1="420" y1="170" x2="400" y2="190" stroke="#fdd835" stroke-width="5" opacity="0.8"/>
  <line x1="400" y1="110" x2="375" y2="110" stroke="#fdd835" stroke-width="6" opacity="0.8"/>
  <line x1="480" y1="190" x2="480" y2="215" stroke="#fdd835" stroke-width="6" opacity="0.8"/>

  <!-- Kleine weiße Wolken (nur wenige) -->
  <ellipse cx="140" cy="120" rx="65" ry="38" fill="#ffffff" opacity="0.9"/>
  <ellipse cx="180" cy="125" rx="55" ry="33" fill="#ffffff" opacity="0.9"/>
  <ellipse cx="105" cy="130" rx="48" ry="30" fill="#ffffff" opacity="0.9"/>

  <!-- Grüne, blühende Hügel -->
  <ellipse cx="300" cy="540" rx="420" ry="90" fill="#8bc34a"/>
  <ellipse cx="150" cy="560" rx="270" ry="75" fill="#9ccc65"/>
  <ellipse cx="450" cy="550" rx="250" ry="80" fill="#7cb342"/>

  <!-- Blühendes Cottage -->
  <rect x="200" y="380" width="200" height="170" fill="#fef9e7"/>
  <rect x="205" y="385" width="190" height="160" fill="#fffef0"/>

  <!-- Dach (grün mit Blumen) -->
  <polygon points="300,310 180,380 420,380" fill="#689f38"/>
  <polygon points="300,310 190,375 410,375" fill="#7cb342"/>
  <path d="M 180,380 Q 255,350 300,345 Q 345,350 420,380" fill="#f1f8e9" opacity="0.4"/>

  <!-- Kletterpflanzen am Dach -->
  <path d="M 210 375 Q 215 365 210 355 Q 205 345 210 335" stroke="#43a047" stroke-width="4" fill="none"/>
  <circle cx="210" cy="360" r="5" fill="#ff4081"/>
  <circle cx="210" cy="340" r="5" fill="#f50057"/>

  <path d="M 390 375 Q 385 365 390 355 Q 395 345 390 335" stroke="#43a047" stroke-width="4" fill="none"/>
  <circle cx="390" cy="360" r="5" fill="#ff4081"/>
  <circle cx="390" cy="340" r="5" fill="#ff1744"/>

  <!-- Fenster (geöffnet mit Blumenkästen) -->
  <rect x="230" y="405" width="55" height="60" fill="#bbdefb"/>
  <rect x="256" y="405" width="2.5" height="60" fill="#6d4c41"/>
  <rect x="230" y="433" width="55" height="2.5" fill="#6d4c41"/>

  <!-- Blumenkasten -->
  <rect x="225" y="465" width="65" height="12" fill="#8d6e63"/>
  <circle cx="238" cy="462" r="5" fill="#e91e63"/>
  <circle cx="253" cy="462" r="5" fill="#ff9800"/>
  <circle cx="268" cy="462" r="5" fill="#ff1744"/>
  <circle cx="278" cy="462" r="5" fill="#ffc107"/>

  <rect x="315" y="405" width="55" height="60" fill="#bbdefb"/>
  <rect x="341" y="405" width="2.5" height="60" fill="#6d4c41"/>
  <rect x="315" y="433" width="55" height="2.5" fill="#6d4c41"/>

  <!-- Blumenkasten -->
  <rect x="310" y="465" width="65" height="12" fill="#8d6e63"/>
  <circle cx="323" cy="462" r="5" fill="#9c27b0"/>
  <circle cx="338" cy="462" r="5" fill="#f50057"/>
  <circle cx="353" cy="462" r="5" fill="#ffeb3b"/>
  <circle cx="363" cy="462" r="5" fill="#ff4081"/>

  <!-- Rundfenster Dach -->
  <circle cx="300" cy="345" r="17" fill="#ffecb3"/>
  <line x1="300" y1="328" x2="300" y2="362" stroke="#6d4c41" stroke-width="2.5"/>
  <line x1="283" y1="345" x2="317" y2="345" stroke="#6d4c41" stroke-width="2.5"/>

  <!-- Tür (mit Blumenkranz) -->
  <rect x="265" y="495" width="70" height="55" fill="#a1887f"/>
  <rect x="270" y="500" width="60" height="48" fill="#bcaaa4"/>
  <circle cx="322" cy="527" r="4" fill="#fdd835"/>

  <!-- Blumenkranz an Tür -->
  <circle cx="300" cy="515" r="18" fill="#66bb6a"/>
  <circle cx="290" cy="508" r="5" fill="#e91e63"/>
  <circle cx="310" cy="508" r="5" fill="#ff9800"/>
  <circle cx="290" cy="522" r="5" fill="#9c27b0"/>
  <circle cx="310" cy="522" r="5" fill="#ffc107"/>
  <circle cx="300" cy="502" r="5" fill="#ff1744"/>
  <circle cx="300" cy="528" r="5" fill="#ffeb3b"/>

  <!-- Schornstein -->
  <rect x="345" y="315" width="22" height="65" fill="#8d6e63"/>
  <rect x="347" y="317" width="18" height="61" fill="#a1887f"/>
  <ellipse cx="356" cy="303" rx="11" ry="15" fill="#e0e0e0" opacity="0.6"/>

  <!-- Große blühende Bäume -->
  <!-- Linker Baum (Kirschblüten) -->
  <rect x="60" y="450" width="30" height="140" fill="#6d4c41"/>
  <circle cx="75" cy="420" r="85" fill="#ffb3d9" opacity="0.9"/>
  <circle cx="40" cy="390" r="68" fill="#ffc0cb" opacity="0.9"/>
  <circle cx="110" cy="395" r="72" fill="#ffcce5" opacity="0.9"/>
  <circle cx="50" cy="445" r="60" fill="#ffb3d9" opacity="0.85"/>
  <circle cx="100" cy="450" r="63" fill="#ffc0cb" opacity="0.85"/>

  <!-- Weiße Blüten -->
  <circle cx="55" cy="410" r="7" fill="#ffffff" opacity="0.95"/>
  <circle cx="75" cy="405" r="7" fill="#ffffff" opacity="0.95"/>
  <circle cx="95" cy="415" r="7" fill="#ffffff" opacity="0.95"/>
  <circle cx="65" cy="435" r="7" fill="#ffffff" opacity="0.95"/>

  <!-- Rechter Baum (grün mit Blüten) -->
  <rect x="500" y="470" width="28" height="130" fill="#6d4c41"/>
  <circle cx="514" cy="445" r="75" fill="#66bb6a" opacity="0.9"/>
  <circle cx="480" cy="420" r="62" fill="#81c784" opacity="0.9"/>
  <circle cx="548" cy="425" r="65" fill="#4caf50" opacity="0.9"/>
  <circle cx="490" cy="460" r="55" fill="#66bb6a" opacity="0.85"/>
  <circle cx="538" cy="465" r="58" fill="#81c784" opacity="0.85"/>

  <!-- Blumenwiese (üppig) -->
  <!-- Mohnblumen -->
  <g>
    <circle cx="150" cy="640" r="13" fill="#f44336"/>
    <circle cx="146" cy="637" r="4" fill="#212121" opacity="0.5"/>
    <rect x="148" y="648" width="4" height="60" fill="#558b2f"/>

    <circle cx="420" cy="650" r="12" fill="#d32f2f"/>
    <circle cx="416" cy="647" r="3.5" fill="#212121" opacity="0.5"/>
    <rect x="418" y="658" width="4" height="58" fill="#558b2f"/>
  </g>

  <!-- Kornblumen -->
  <g>
    <circle cx="200" cy="655" r="9" fill="#2196f3"/>
    <circle cx="197" cy="653" r="3" fill="#ffffff" opacity="0.5"/>
    <rect x="198" y="662" width="4" height="55" fill="#558b2f"/>

    <circle cx="360" cy="660" r="9" fill="#1976d2"/>
    <rect x="358" y="667" width="4" height="53" fill="#558b2f"/>
  </g>

  <!-- Sonnenblumen (jung) -->
  <g>
    <circle cx="280" cy="645" r="15" fill="#fdd835"/>
    <circle cx="271" cy="641" r="6" fill="#fff9c4"/>
    <circle cx="289" cy="641" r="6" fill="#fff9c4"/>
    <circle cx="271" cy="649" r="6" fill="#fff9c4"/>
    <circle cx="289" cy="649" r="6" fill="#fff9c4"/>
    <circle cx="280" cy="645" r="8" fill="#f57c00"/>
    <rect x="278" y="653" width="4" height="65" fill="#689f38"/>
  </g>

  <!-- Bunte Wildblumen -->
  <circle cx="240" cy="680" r="6" fill="#e91e63"/>
  <circle cx="320" cy="690" r="6" fill="#9c27b0"/>
  <circle cx="460" cy="680" r="6" fill="#ff9800"/>
  <circle cx="390" cy="695" r="6" fill="#ffc107"/>

  <!-- Wiese/Boden -->
  <ellipse cx="300" cy="760" rx="450" ry="120" fill="#aed581"/>
  <rect x="0" y="720" width="600" height="80" fill="#aed581"/>

  <!-- Grashalme -->
  <line x1="110" y1="730" x2="105" y2="710" stroke="#7cb342" stroke-width="3" opacity="0.7"/>
  <line x1="270" y1="740" x2="265" y2="718" stroke="#7cb342" stroke-width="3" opacity="0.7"/>
  <line x1="440" y1="735" x2="435" y2="715" stroke="#7cb342" stroke-width="3" opacity="0.7"/>
  <line x1="550" y1="745" x2="545" y2="725" stroke="#7cb342" stroke-width="3" opacity="0.7"/>

  <!-- Schmetterlinge (mehrere) -->
  <g transform="translate(190, 520) rotate(20)">
    <ellipse cx="-11" cy="0" rx="13" ry="17" fill="#ff6f00" opacity="0.9"/>
    <ellipse cx="11" cy="0" rx="13" ry="17" fill="#ffa726" opacity="0.9"/>
    <ellipse cx="-11" cy="0" rx="5" ry="7" fill="#ffffff" opacity="0.7"/>
    <ellipse cx="11" cy="0" rx="5" ry="7" fill="#ffffff" opacity="0.7"/>
    <line x1="-12" y1="-11" x2="12" y2="-11" stroke="#212121" stroke-width="2"/>
    <circle cx="0" cy="-11" r="3" fill="#424242"/>
    <line x1="-3" y1="-12" x2="-6" y2="-17" stroke="#212121" stroke-width="1.5"/>
    <line x1="3" y1="-12" x2="6" y2="-17" stroke="#212121" stroke-width="1.5"/>
  </g>

  <g transform="translate(410, 560) rotate(-25)">
    <ellipse cx="-10" cy="0" rx="12" ry="16" fill="#9c27b0" opacity="0.9"/>
    <ellipse cx="10" cy="0" rx="12" ry="16" fill="#ba68c8" opacity="0.9"/>
    <ellipse cx="-10" cy="0" rx="4" ry="6" fill="#fdd835" opacity="0.7"/>
    <ellipse cx="10" cy="0" rx="4" ry="6" fill="#fdd835" opacity="0.7"/>
    <line x1="-11" y1="-10" x2="11" y2="-10" stroke="#212121" stroke-width="2"/>
    <circle cx="0" cy="-10" r="2.5" fill="#424242"/>
    <line x1="-2.5" y1="-11" x2="-5" y2="-15" stroke="#212121" stroke-width="1.3"/>
    <line x1="2.5" y1="-11" x2="5" y2="-15" stroke="#212121" stroke-width="1.3"/>
  </g>

  <!-- Bienen (fleißig) -->
  <g transform="translate(330, 600)">
    <ellipse cx="0" cy="0" rx="10" ry="14" fill="#fdd835"/>
    <ellipse cx="0" cy="-4" rx="10" ry="4" fill="#212121" opacity="0.7"/>
    <ellipse cx="0" cy="4" rx="10" ry="4" fill="#212121" opacity="0.7"/>
    <ellipse cx="-12" cy="-3" rx="10" ry="4" fill="#e3f2fd" opacity="0.6"/>
    <ellipse cx="12" cy="-3" rx="10" ry="4" fill="#e3f2fd" opacity="0.6"/>
  </g>

  <g transform="translate(480, 620)">
    <ellipse cx="0" cy="0" rx="9" ry="13" fill="#fdd835"/>
    <ellipse cx="0" cy="-3" rx="9" ry="3.5" fill="#212121" opacity="0.7"/>
    <ellipse cx="0" cy="3" rx="9" ry="3.5" fill="#212121" opacity="0.7"/>
    <ellipse cx="-11" cy="-2" rx="9" ry="3.5" fill="#e3f2fd" opacity="0.6"/>
    <ellipse cx="11" cy="-2" rx="9" ry="3.5" fill="#e3f2fd" opacity="0.6"/>
  </g>

  <!-- Vögel am Himmel -->
  <path d="M 250 240 Q 265 235 280 240" stroke="#424242" stroke-width="2.5" fill="none"/>
  <path d="M 300 220 Q 315 215 330 220" stroke="#424242" stroke-width="2.5" fill="none"/>
  <path d="M 270 200 Q 285 195 300 200" stroke="#424242" stroke-width="2.5" fill="none"/>

  <!-- Emoji-Dekoration -->
  <text x="440" y="125" font-size="48" opacity="0.45">☀️</text>
  <text x="105" y="135" font-size="32" opacity="0.4">☁️</text>
  <text x="35" y="480" font-size="44" opacity="0.85">🌸</text>
  <text x="125" y="665" font-size="32" opacity="0.9">🌺</text>
  <text x="255" y="675" font-size="34" opacity="0.9">🌻</text>
  <text x="395" y="680" font-size="30" opacity="0.9">🌼</text>
  <text x="470" y="545" font-size="36" opacity="0.75">🌳</text>
  <text x="160" y="545" font-size="28" opacity="0.85">🦋</text>
  <text x="380" y="585" font-size="26" opacity="0.85">🦋</text>
  <text x="300" y="625" font-size="24" opacity="0.8">🐝</text>
  <text x="450" y="645" font-size="22" opacity="0.75">🐝</text>
  <text x="235" y="255" font-size="20" opacity="0.65">🐦</text>
</svg>
